%TF.GenerationSoftware,KiCad,Pcbnew,6.0.0*%
%TF.CreationDate,2022-02-18T00:32:39-05:00*%
%TF.ProjectId,picocart,7069636f-6361-4727-942e-6b696361645f,rev?*%
%TF.SameCoordinates,Original*%
%TF.FileFunction,Legend,Bot*%
%TF.FilePolarity,Positive*%
%FSLAX46Y46*%
G04 Gerber Fmt 4.6, Leading zero omitted, Abs format (unit mm)*
G04 Created by KiCad (PCBNEW 6.0.0) date 2022-02-18 00:32:39*
%MOMM*%
%LPD*%
G01*
G04 APERTURE LIST*
%ADD10O,1.700000X1.700000*%
%ADD11R,1.700000X1.700000*%
%ADD12C,5.000000*%
%ADD13R,1.524000X8.316000*%
G04 APERTURE END LIST*
%LPC*%
%TO.C,J1*%
G36*
X175318000Y-107354200D02*
G01*
X118306000Y-107354200D01*
X118306000Y-98819800D01*
X175318000Y-98819800D01*
X175318000Y-107354200D01*
G37*
%TD*%
D10*
%TO.C,SW1*%
X121412000Y-62992000D03*
X121412000Y-60452000D03*
D11*
X121412000Y-57912000D03*
%TD*%
D10*
%TO.C,J2*%
X171958000Y-47470000D03*
X171958000Y-50010000D03*
D11*
X171958000Y-52550000D03*
D10*
X171958000Y-55090000D03*
X171958000Y-57630000D03*
X171958000Y-60170000D03*
X171958000Y-62710000D03*
D11*
X171958000Y-65250000D03*
D10*
X171958000Y-67790000D03*
X171958000Y-70330000D03*
X171958000Y-72870000D03*
X171958000Y-75410000D03*
D11*
X171958000Y-77950000D03*
D10*
X171958000Y-80490000D03*
X171958000Y-83030000D03*
X171958000Y-85570000D03*
X171958000Y-88110000D03*
D11*
X171958000Y-90650000D03*
D10*
X171958000Y-93190000D03*
X171958000Y-95730000D03*
X154178000Y-95730000D03*
X154178000Y-93190000D03*
D11*
X154178000Y-90650000D03*
D10*
X154178000Y-88110000D03*
X154178000Y-85570000D03*
X154178000Y-83030000D03*
X154178000Y-80490000D03*
D11*
X154178000Y-77950000D03*
D10*
X154178000Y-75410000D03*
X154178000Y-72870000D03*
X154178000Y-70330000D03*
X154178000Y-67790000D03*
D11*
X154178000Y-65250000D03*
D10*
X154178000Y-62710000D03*
X154178000Y-60170000D03*
X154178000Y-57630000D03*
X154178000Y-55090000D03*
D11*
X154178000Y-52550000D03*
D10*
X154178000Y-50010000D03*
X154178000Y-47470000D03*
%TD*%
D12*
%TO.C,REF\u002A\u002A*%
X146810000Y-65040000D03*
%TD*%
D13*
%TO.C,J1*%
X120142000Y-102977800D03*
X122682000Y-102977800D03*
X125222000Y-102977800D03*
X127762000Y-102977800D03*
X130302000Y-102977800D03*
X132842000Y-102977800D03*
X135382000Y-102977800D03*
X137922000Y-102977800D03*
X140462000Y-102977800D03*
X143002000Y-102977800D03*
X145542000Y-102977800D03*
X148082000Y-102977800D03*
X150622000Y-102977800D03*
X153162000Y-102977800D03*
X155702000Y-102977800D03*
X158242000Y-102977800D03*
X160782000Y-102977800D03*
X163322000Y-102977800D03*
X165862000Y-102977800D03*
X168402000Y-102977800D03*
X170942000Y-102977800D03*
X173482000Y-102977800D03*
%TD*%
M02*
