M48
; DRILL file {KiCad 6.0.0} date Fri 18 Feb 2022 12:33:33 AM EST
; FORMAT={-:-/ absolute / metric / decimal}
; #@! TF.CreationDate,2022-02-18T00:33:33-05:00
; #@! TF.GenerationSoftware,Kicad,Pcbnew,6.0.0
; #@! TF.FileFunction,Plated,1,2,PTH
FMAT,2
METRIC
; #@! TA.AperFunction,Plated,PTH,ViaDrill
T1C0.400
; #@! TA.AperFunction,Plated,PTH,ComponentDrill
T2C1.000
; #@! TA.AperFunction,Plated,PTH,ComponentDrill
T3C1.020
%
G90
G05
T1
X120.15Y-97.42
X120.287Y-69.977
X122.936Y-68.58
X122.936Y-69.85
X122.936Y-71.247
X122.936Y-72.517
X122.936Y-84.328
X122.936Y-85.598
X122.936Y-86.868
X122.936Y-88.138
X125.0Y-91.0
X127.0Y-76.536
X127.0Y-82.5
X128.016Y-65.024
X133.096Y-69.85
X133.096Y-71.12
X133.096Y-72.39
X133.096Y-73.66
X133.096Y-85.598
X133.096Y-86.868
X133.096Y-88.138
X133.096Y-89.408
X133.25Y-79.0
X133.312Y-83.657
X134.0Y-76.653
X134.25Y-63.5
X134.84Y-64.25
X134.974Y-78.224
X135.409Y-77.193
X135.427Y-64.966
X135.78Y-65.823
X136.024Y-76.5
X137.16Y-84.328
X137.16Y-85.598
X137.16Y-86.868
X137.16Y-88.138
X137.331Y-72.644
X137.475Y-92.535
X137.921Y-73.5
X138.174Y-74.5
X138.25Y-79.75
X138.444Y-75.386
X138.684Y-96.52
X138.938Y-90.729
X139.192Y-60.452
X140.25Y-57.5
X140.462Y-97.028
X140.84Y-58.326
X141.094Y-59.25
X141.347Y-60.157
X144.5Y-74.5
X144.5Y-75.427
X144.5Y-76.353
X144.5Y-77.28
X144.5Y-78.206
X144.526Y-72.644
X144.526Y-73.571
X146.558Y-85.598
X146.558Y-86.868
X146.558Y-88.138
X146.558Y-89.408
X150.394Y-95.677
X157.48Y-56.0
X157.734Y-94.488
X157.827Y-55.141
X158.398Y-54.411
X158.75Y-57.941
X158.75Y-58.867
X158.75Y-59.794
X158.75Y-60.72
X158.984Y-53.694
X168.91Y-51.054
T2
X121.412Y-57.912
X121.412Y-60.452
X121.412Y-62.992
T3
X154.178Y-47.47
X154.178Y-50.01
X154.178Y-52.55
X154.178Y-55.09
X154.178Y-57.63
X154.178Y-60.17
X154.178Y-62.71
X154.178Y-65.25
X154.178Y-67.79
X154.178Y-70.33
X154.178Y-72.87
X154.178Y-75.41
X154.178Y-77.95
X154.178Y-80.49
X154.178Y-83.03
X154.178Y-85.57
X154.178Y-88.11
X154.178Y-90.65
X154.178Y-93.19
X154.178Y-95.73
X171.958Y-47.47
X171.958Y-50.01
X171.958Y-52.55
X171.958Y-55.09
X171.958Y-57.63
X171.958Y-60.17
X171.958Y-62.71
X171.958Y-65.25
X171.958Y-67.79
X171.958Y-70.33
X171.958Y-72.87
X171.958Y-75.41
X171.958Y-77.95
X171.958Y-80.49
X171.958Y-83.03
X171.958Y-85.57
X171.958Y-88.11
X171.958Y-90.65
X171.958Y-93.19
X171.958Y-95.73
T0
M30
