%FSLAX45Y45*%
G04 Gerber Fmt 4.5, Leading zero omitted, Abs format (unit mm)*
G04 Created by KiCad (PCBNEW 6.0.0) date 2022-02-18 00:33:37*
%MOMM*%
%LPD*%
G01*
G04 APERTURE LIST*
%TA.AperFunction,Profile*%
%ADD10C,0.050000*%
%TD*%
%ADD11C,0.200000*%
%ADD12C,0.500000*%
G04 APERTURE END LIST*
D10*
X17531200Y-10733600D02*
X11831200Y-10733600D01*
X11831200Y-10733600D02*
X11831200Y-4533600D01*
X11831200Y-4533600D02*
X17531200Y-4533600D01*
X17531200Y-4533600D02*
X17531200Y-10733600D01*
D11*
D12*
X14431000Y-6254000D02*
X14931000Y-6754000D01*
X14931000Y-6254000D02*
X14431000Y-6754000D01*
D11*
X12086319Y-11046576D02*
X12086319Y-10846576D01*
X12133938Y-10846576D01*
X12162509Y-10856100D01*
X12181557Y-10875148D01*
X12191081Y-10894195D01*
X12200605Y-10932290D01*
X12200605Y-10960862D01*
X12191081Y-10998957D01*
X12181557Y-11018005D01*
X12162509Y-11037052D01*
X12133938Y-11046576D01*
X12086319Y-11046576D01*
X12286319Y-11046576D02*
X12286319Y-10913243D01*
X12286319Y-10951338D02*
X12295843Y-10932290D01*
X12305367Y-10922767D01*
X12324414Y-10913243D01*
X12343462Y-10913243D01*
X12410128Y-11046576D02*
X12410128Y-10913243D01*
X12410128Y-10846576D02*
X12400605Y-10856100D01*
X12410128Y-10865624D01*
X12419652Y-10856100D01*
X12410128Y-10846576D01*
X12410128Y-10865624D01*
X12533938Y-11046576D02*
X12514890Y-11037052D01*
X12505367Y-11018005D01*
X12505367Y-10846576D01*
X12638700Y-11046576D02*
X12619652Y-11037052D01*
X12610128Y-11018005D01*
X12610128Y-10846576D01*
X12867271Y-11046576D02*
X12867271Y-10846576D01*
X12933938Y-10989433D01*
X13000605Y-10846576D01*
X13000605Y-11046576D01*
X13181557Y-11046576D02*
X13181557Y-10941814D01*
X13172033Y-10922767D01*
X13152986Y-10913243D01*
X13114890Y-10913243D01*
X13095843Y-10922767D01*
X13181557Y-11037052D02*
X13162509Y-11046576D01*
X13114890Y-11046576D01*
X13095843Y-11037052D01*
X13086319Y-11018005D01*
X13086319Y-10998957D01*
X13095843Y-10979910D01*
X13114890Y-10970386D01*
X13162509Y-10970386D01*
X13181557Y-10960862D01*
X13276795Y-10913243D02*
X13276795Y-11113243D01*
X13276795Y-10922767D02*
X13295843Y-10913243D01*
X13333938Y-10913243D01*
X13352986Y-10922767D01*
X13362509Y-10932290D01*
X13372033Y-10951338D01*
X13372033Y-11008481D01*
X13362509Y-11027529D01*
X13352986Y-11037052D01*
X13333938Y-11046576D01*
X13295843Y-11046576D01*
X13276795Y-11037052D01*
X13457748Y-11027529D02*
X13467271Y-11037052D01*
X13457748Y-11046576D01*
X13448224Y-11037052D01*
X13457748Y-11027529D01*
X13457748Y-11046576D01*
X13457748Y-10922767D02*
X13467271Y-10932290D01*
X13457748Y-10941814D01*
X13448224Y-10932290D01*
X13457748Y-10922767D01*
X13457748Y-10941814D01*
X11628700Y-11276100D02*
X11828700Y-11476100D01*
X11828700Y-11276100D02*
X11628700Y-11476100D01*
X12181557Y-11266576D02*
X12086319Y-11266576D01*
X12076795Y-11361814D01*
X12086319Y-11352290D01*
X12105367Y-11342767D01*
X12152986Y-11342767D01*
X12172033Y-11352290D01*
X12181557Y-11361814D01*
X12191081Y-11380862D01*
X12191081Y-11428481D01*
X12181557Y-11447528D01*
X12172033Y-11457052D01*
X12152986Y-11466576D01*
X12105367Y-11466576D01*
X12086319Y-11457052D01*
X12076795Y-11447528D01*
X12276795Y-11447528D02*
X12286319Y-11457052D01*
X12276795Y-11466576D01*
X12267271Y-11457052D01*
X12276795Y-11447528D01*
X12276795Y-11466576D01*
X12410128Y-11266576D02*
X12429176Y-11266576D01*
X12448224Y-11276100D01*
X12457748Y-11285624D01*
X12467271Y-11304671D01*
X12476795Y-11342767D01*
X12476795Y-11390386D01*
X12467271Y-11428481D01*
X12457748Y-11447528D01*
X12448224Y-11457052D01*
X12429176Y-11466576D01*
X12410128Y-11466576D01*
X12391081Y-11457052D01*
X12381557Y-11447528D01*
X12372033Y-11428481D01*
X12362509Y-11390386D01*
X12362509Y-11342767D01*
X12372033Y-11304671D01*
X12381557Y-11285624D01*
X12391081Y-11276100D01*
X12410128Y-11266576D01*
X12600605Y-11266576D02*
X12619652Y-11266576D01*
X12638700Y-11276100D01*
X12648224Y-11285624D01*
X12657748Y-11304671D01*
X12667271Y-11342767D01*
X12667271Y-11390386D01*
X12657748Y-11428481D01*
X12648224Y-11447528D01*
X12638700Y-11457052D01*
X12619652Y-11466576D01*
X12600605Y-11466576D01*
X12581557Y-11457052D01*
X12572033Y-11447528D01*
X12562509Y-11428481D01*
X12552986Y-11390386D01*
X12552986Y-11342767D01*
X12562509Y-11304671D01*
X12572033Y-11285624D01*
X12581557Y-11276100D01*
X12600605Y-11266576D01*
X12791081Y-11266576D02*
X12810128Y-11266576D01*
X12829176Y-11276100D01*
X12838700Y-11285624D01*
X12848224Y-11304671D01*
X12857748Y-11342767D01*
X12857748Y-11390386D01*
X12848224Y-11428481D01*
X12838700Y-11447528D01*
X12829176Y-11457052D01*
X12810128Y-11466576D01*
X12791081Y-11466576D01*
X12772033Y-11457052D01*
X12762509Y-11447528D01*
X12752986Y-11428481D01*
X12743462Y-11390386D01*
X12743462Y-11342767D01*
X12752986Y-11304671D01*
X12762509Y-11285624D01*
X12772033Y-11276100D01*
X12791081Y-11266576D01*
X12943462Y-11466576D02*
X12943462Y-11333243D01*
X12943462Y-11352290D02*
X12952986Y-11342767D01*
X12972033Y-11333243D01*
X13000605Y-11333243D01*
X13019652Y-11342767D01*
X13029176Y-11361814D01*
X13029176Y-11466576D01*
X13029176Y-11361814D02*
X13038700Y-11342767D01*
X13057748Y-11333243D01*
X13086319Y-11333243D01*
X13105367Y-11342767D01*
X13114890Y-11361814D01*
X13114890Y-11466576D01*
X13210128Y-11466576D02*
X13210128Y-11333243D01*
X13210128Y-11352290D02*
X13219652Y-11342767D01*
X13238700Y-11333243D01*
X13267271Y-11333243D01*
X13286319Y-11342767D01*
X13295843Y-11361814D01*
X13295843Y-11466576D01*
X13295843Y-11361814D02*
X13305367Y-11342767D01*
X13324414Y-11333243D01*
X13352986Y-11333243D01*
X13372033Y-11342767D01*
X13381557Y-11361814D01*
X13381557Y-11466576D01*
X13772033Y-11257052D02*
X13600605Y-11514195D01*
X14029176Y-11266576D02*
X14048224Y-11266576D01*
X14067271Y-11276100D01*
X14076795Y-11285624D01*
X14086319Y-11304671D01*
X14095843Y-11342767D01*
X14095843Y-11390386D01*
X14086319Y-11428481D01*
X14076795Y-11447528D01*
X14067271Y-11457052D01*
X14048224Y-11466576D01*
X14029176Y-11466576D01*
X14010128Y-11457052D01*
X14000605Y-11447528D01*
X13991081Y-11428481D01*
X13981557Y-11390386D01*
X13981557Y-11342767D01*
X13991081Y-11304671D01*
X14000605Y-11285624D01*
X14010128Y-11276100D01*
X14029176Y-11266576D01*
X14181557Y-11447528D02*
X14191081Y-11457052D01*
X14181557Y-11466576D01*
X14172033Y-11457052D01*
X14181557Y-11447528D01*
X14181557Y-11466576D01*
X14381557Y-11466576D02*
X14267271Y-11466576D01*
X14324414Y-11466576D02*
X14324414Y-11266576D01*
X14305367Y-11295148D01*
X14286319Y-11314195D01*
X14267271Y-11323719D01*
X14476795Y-11466576D02*
X14514890Y-11466576D01*
X14533938Y-11457052D01*
X14543462Y-11447528D01*
X14562509Y-11418957D01*
X14572033Y-11380862D01*
X14572033Y-11304671D01*
X14562509Y-11285624D01*
X14552986Y-11276100D01*
X14533938Y-11266576D01*
X14495843Y-11266576D01*
X14476795Y-11276100D01*
X14467271Y-11285624D01*
X14457748Y-11304671D01*
X14457748Y-11352290D01*
X14467271Y-11371338D01*
X14476795Y-11380862D01*
X14495843Y-11390386D01*
X14533938Y-11390386D01*
X14552986Y-11380862D01*
X14562509Y-11371338D01*
X14572033Y-11352290D01*
X14743462Y-11266576D02*
X14705367Y-11266576D01*
X14686319Y-11276100D01*
X14676795Y-11285624D01*
X14657748Y-11314195D01*
X14648224Y-11352290D01*
X14648224Y-11428481D01*
X14657748Y-11447528D01*
X14667271Y-11457052D01*
X14686319Y-11466576D01*
X14724414Y-11466576D01*
X14743462Y-11457052D01*
X14752986Y-11447528D01*
X14762509Y-11428481D01*
X14762509Y-11380862D01*
X14752986Y-11361814D01*
X14743462Y-11352290D01*
X14724414Y-11342767D01*
X14686319Y-11342767D01*
X14667271Y-11352290D01*
X14657748Y-11361814D01*
X14648224Y-11380862D01*
X14857748Y-11466576D02*
X14895843Y-11466576D01*
X14914890Y-11457052D01*
X14924414Y-11447528D01*
X14943462Y-11418957D01*
X14952986Y-11380862D01*
X14952986Y-11304671D01*
X14943462Y-11285624D01*
X14933938Y-11276100D01*
X14914890Y-11266576D01*
X14876795Y-11266576D01*
X14857748Y-11276100D01*
X14848224Y-11285624D01*
X14838700Y-11304671D01*
X14838700Y-11352290D01*
X14848224Y-11371338D01*
X14857748Y-11380862D01*
X14876795Y-11390386D01*
X14914890Y-11390386D01*
X14933938Y-11380862D01*
X14943462Y-11371338D01*
X14952986Y-11352290D01*
X15029176Y-11266576D02*
X15029176Y-11304671D01*
X15105367Y-11266576D02*
X15105367Y-11304671D01*
X15400605Y-11542767D02*
X15391081Y-11533243D01*
X15372033Y-11504671D01*
X15362509Y-11485624D01*
X15352986Y-11457052D01*
X15343462Y-11409433D01*
X15343462Y-11371338D01*
X15352986Y-11323719D01*
X15362509Y-11295148D01*
X15372033Y-11276100D01*
X15391081Y-11247528D01*
X15400605Y-11238005D01*
X15581557Y-11466576D02*
X15467271Y-11466576D01*
X15524414Y-11466576D02*
X15524414Y-11266576D01*
X15505367Y-11295148D01*
X15486319Y-11314195D01*
X15467271Y-11323719D01*
X15819652Y-11466576D02*
X15819652Y-11266576D01*
X15905367Y-11466576D02*
X15905367Y-11361814D01*
X15895843Y-11342767D01*
X15876795Y-11333243D01*
X15848224Y-11333243D01*
X15829176Y-11342767D01*
X15819652Y-11352290D01*
X16029176Y-11466576D02*
X16010128Y-11457052D01*
X16000605Y-11447528D01*
X15991081Y-11428481D01*
X15991081Y-11371338D01*
X16000605Y-11352290D01*
X16010128Y-11342767D01*
X16029176Y-11333243D01*
X16057748Y-11333243D01*
X16076795Y-11342767D01*
X16086319Y-11352290D01*
X16095843Y-11371338D01*
X16095843Y-11428481D01*
X16086319Y-11447528D01*
X16076795Y-11457052D01*
X16057748Y-11466576D01*
X16029176Y-11466576D01*
X16210128Y-11466576D02*
X16191081Y-11457052D01*
X16181557Y-11438005D01*
X16181557Y-11266576D01*
X16362509Y-11457052D02*
X16343462Y-11466576D01*
X16305367Y-11466576D01*
X16286319Y-11457052D01*
X16276795Y-11438005D01*
X16276795Y-11361814D01*
X16286319Y-11342767D01*
X16305367Y-11333243D01*
X16343462Y-11333243D01*
X16362509Y-11342767D01*
X16372033Y-11361814D01*
X16372033Y-11380862D01*
X16276795Y-11399909D01*
X16438700Y-11542767D02*
X16448224Y-11533243D01*
X16467271Y-11504671D01*
X16476795Y-11485624D01*
X16486319Y-11457052D01*
X16495843Y-11409433D01*
X16495843Y-11371338D01*
X16486319Y-11323719D01*
X16476795Y-11295148D01*
X16467271Y-11276100D01*
X16448224Y-11247528D01*
X16438700Y-11238005D01*
X16800605Y-11542767D02*
X16791081Y-11533243D01*
X16772033Y-11504671D01*
X16762509Y-11485624D01*
X16752986Y-11457052D01*
X16743462Y-11409433D01*
X16743462Y-11371338D01*
X16752986Y-11323719D01*
X16762509Y-11295148D01*
X16772033Y-11276100D01*
X16791081Y-11247528D01*
X16800605Y-11238005D01*
X16876795Y-11333243D02*
X16876795Y-11466576D01*
X16876795Y-11352290D02*
X16886319Y-11342767D01*
X16905367Y-11333243D01*
X16933938Y-11333243D01*
X16952986Y-11342767D01*
X16962510Y-11361814D01*
X16962510Y-11466576D01*
X17086319Y-11466576D02*
X17067271Y-11457052D01*
X17057748Y-11447528D01*
X17048224Y-11428481D01*
X17048224Y-11371338D01*
X17057748Y-11352290D01*
X17067271Y-11342767D01*
X17086319Y-11333243D01*
X17114890Y-11333243D01*
X17133938Y-11342767D01*
X17143462Y-11352290D01*
X17152986Y-11371338D01*
X17152986Y-11428481D01*
X17143462Y-11447528D01*
X17133938Y-11457052D01*
X17114890Y-11466576D01*
X17086319Y-11466576D01*
X17210129Y-11333243D02*
X17286319Y-11333243D01*
X17238700Y-11266576D02*
X17238700Y-11438005D01*
X17248224Y-11457052D01*
X17267271Y-11466576D01*
X17286319Y-11466576D01*
X17505367Y-11333243D02*
X17505367Y-11533243D01*
X17505367Y-11342767D02*
X17524414Y-11333243D01*
X17562510Y-11333243D01*
X17581557Y-11342767D01*
X17591081Y-11352290D01*
X17600605Y-11371338D01*
X17600605Y-11428481D01*
X17591081Y-11447528D01*
X17581557Y-11457052D01*
X17562510Y-11466576D01*
X17524414Y-11466576D01*
X17505367Y-11457052D01*
X17714890Y-11466576D02*
X17695843Y-11457052D01*
X17686319Y-11438005D01*
X17686319Y-11266576D01*
X17876795Y-11466576D02*
X17876795Y-11361814D01*
X17867271Y-11342767D01*
X17848224Y-11333243D01*
X17810129Y-11333243D01*
X17791081Y-11342767D01*
X17876795Y-11457052D02*
X17857748Y-11466576D01*
X17810129Y-11466576D01*
X17791081Y-11457052D01*
X17781557Y-11438005D01*
X17781557Y-11418957D01*
X17791081Y-11399909D01*
X17810129Y-11390386D01*
X17857748Y-11390386D01*
X17876795Y-11380862D01*
X17943462Y-11333243D02*
X18019652Y-11333243D01*
X17972033Y-11266576D02*
X17972033Y-11438005D01*
X17981557Y-11457052D01*
X18000605Y-11466576D01*
X18019652Y-11466576D01*
X18162510Y-11457052D02*
X18143462Y-11466576D01*
X18105367Y-11466576D01*
X18086319Y-11457052D01*
X18076795Y-11438005D01*
X18076795Y-11361814D01*
X18086319Y-11342767D01*
X18105367Y-11333243D01*
X18143462Y-11333243D01*
X18162510Y-11342767D01*
X18172033Y-11361814D01*
X18172033Y-11380862D01*
X18076795Y-11399909D01*
X18343462Y-11466576D02*
X18343462Y-11266576D01*
X18343462Y-11457052D02*
X18324414Y-11466576D01*
X18286319Y-11466576D01*
X18267271Y-11457052D01*
X18257748Y-11447528D01*
X18248224Y-11428481D01*
X18248224Y-11371338D01*
X18257748Y-11352290D01*
X18267271Y-11342767D01*
X18286319Y-11333243D01*
X18324414Y-11333243D01*
X18343462Y-11342767D01*
X18419652Y-11542767D02*
X18429176Y-11533243D01*
X18448224Y-11504671D01*
X18457748Y-11485624D01*
X18467271Y-11457052D01*
X18476795Y-11409433D01*
X18476795Y-11371338D01*
X18467271Y-11323719D01*
X18457748Y-11295148D01*
X18448224Y-11276100D01*
X18429176Y-11247528D01*
X18419652Y-11238005D01*
M02*
