%FSLAX45Y45*%
G04 Gerber Fmt 4.5, Leading zero omitted, Abs format (unit mm)*
G04 Created by KiCad (PCBNEW 6.0.0) date 2022-02-18 00:33:37*
%MOMM*%
%LPD*%
G01*
G04 APERTURE LIST*
%TA.AperFunction,Profile*%
%ADD10C,0.050000*%
%TD*%
%ADD11C,0.200000*%
%ADD12C,0.040000*%
%ADD13C,0.100000*%
%ADD14C,0.102000*%
G04 APERTURE END LIST*
D10*
X17531200Y-10733600D02*
X11831200Y-10733600D01*
X11831200Y-10733600D02*
X11831200Y-4533600D01*
X11831200Y-4533600D02*
X17531200Y-4533600D01*
X17531200Y-4533600D02*
X17531200Y-10733600D01*
D11*
D12*
X11995000Y-9722000D02*
X12035000Y-9762000D01*
X12035000Y-9722000D02*
X11995000Y-9762000D01*
X12008702Y-6977700D02*
X12048702Y-7017700D01*
X12048702Y-6977700D02*
X12008702Y-7017700D01*
X12273600Y-6838000D02*
X12313600Y-6878000D01*
X12313600Y-6838000D02*
X12273600Y-6878000D01*
X12273600Y-6965000D02*
X12313600Y-7005000D01*
X12313600Y-6965000D02*
X12273600Y-7005000D01*
X12273600Y-7104700D02*
X12313600Y-7144700D01*
X12313600Y-7104700D02*
X12273600Y-7144700D01*
X12273600Y-7231700D02*
X12313600Y-7271700D01*
X12313600Y-7231700D02*
X12273600Y-7271700D01*
X12273600Y-8412800D02*
X12313600Y-8452800D01*
X12313600Y-8412800D02*
X12273600Y-8452800D01*
X12273600Y-8539800D02*
X12313600Y-8579800D01*
X12313600Y-8539800D02*
X12273600Y-8579800D01*
X12273600Y-8666800D02*
X12313600Y-8706800D01*
X12313600Y-8666800D02*
X12273600Y-8706800D01*
X12273600Y-8793800D02*
X12313600Y-8833800D01*
X12313600Y-8793800D02*
X12273600Y-8833800D01*
X12480000Y-9080000D02*
X12520000Y-9120000D01*
X12520000Y-9080000D02*
X12480000Y-9120000D01*
X12680000Y-7633600D02*
X12720000Y-7673600D01*
X12720000Y-7633600D02*
X12680000Y-7673600D01*
X12680000Y-8230000D02*
X12720000Y-8270000D01*
X12720000Y-8230000D02*
X12680000Y-8270000D01*
X12781600Y-6482400D02*
X12821600Y-6522400D01*
X12821600Y-6482400D02*
X12781600Y-6522400D01*
X13289600Y-6965000D02*
X13329600Y-7005000D01*
X13329600Y-6965000D02*
X13289600Y-7005000D01*
X13289600Y-7092000D02*
X13329600Y-7132000D01*
X13329600Y-7092000D02*
X13289600Y-7132000D01*
X13289600Y-7219000D02*
X13329600Y-7259000D01*
X13329600Y-7219000D02*
X13289600Y-7259000D01*
X13289600Y-7346000D02*
X13329600Y-7386000D01*
X13329600Y-7346000D02*
X13289600Y-7386000D01*
X13289600Y-8539800D02*
X13329600Y-8579800D01*
X13329600Y-8539800D02*
X13289600Y-8579800D01*
X13289600Y-8666800D02*
X13329600Y-8706800D01*
X13329600Y-8666800D02*
X13289600Y-8706800D01*
X13289600Y-8793800D02*
X13329600Y-8833800D01*
X13329600Y-8793800D02*
X13289600Y-8833800D01*
X13289600Y-8920800D02*
X13329600Y-8960800D01*
X13329600Y-8920800D02*
X13289600Y-8960800D01*
X13305000Y-7880000D02*
X13345000Y-7920000D01*
X13345000Y-7880000D02*
X13305000Y-7920000D01*
X13311241Y-8345743D02*
X13351241Y-8385743D01*
X13351241Y-8345743D02*
X13311241Y-8385743D01*
X13380000Y-7645296D02*
X13420000Y-7685296D01*
X13420000Y-7645296D02*
X13380000Y-7685296D01*
X13405000Y-6330000D02*
X13445000Y-6370000D01*
X13445000Y-6330000D02*
X13405000Y-6370000D01*
X13464000Y-6405000D02*
X13504000Y-6445000D01*
X13504000Y-6405000D02*
X13464000Y-6445000D01*
X13477390Y-7802390D02*
X13517390Y-7842390D01*
X13517390Y-7802390D02*
X13477390Y-7842390D01*
X13520872Y-7699279D02*
X13560872Y-7739279D01*
X13560872Y-7699279D02*
X13520872Y-7739279D01*
X13522748Y-6476643D02*
X13562748Y-6516643D01*
X13562748Y-6476643D02*
X13522748Y-6516643D01*
X13558013Y-6562320D02*
X13598013Y-6602320D01*
X13598013Y-6562320D02*
X13558013Y-6602320D01*
X13582390Y-7630000D02*
X13622390Y-7670000D01*
X13622390Y-7630000D02*
X13582390Y-7670000D01*
X13696000Y-8412800D02*
X13736000Y-8452800D01*
X13736000Y-8412800D02*
X13696000Y-8452800D01*
X13696000Y-8539800D02*
X13736000Y-8579800D01*
X13736000Y-8539800D02*
X13696000Y-8579800D01*
X13696000Y-8666800D02*
X13736000Y-8706800D01*
X13736000Y-8666800D02*
X13696000Y-8706800D01*
X13696000Y-8793800D02*
X13736000Y-8833800D01*
X13736000Y-8793800D02*
X13696000Y-8833800D01*
X13713090Y-7244400D02*
X13753090Y-7284400D01*
X13753090Y-7244400D02*
X13713090Y-7284400D01*
X13727509Y-9233458D02*
X13767509Y-9273458D01*
X13767509Y-9233458D02*
X13727509Y-9273458D01*
X13772090Y-7330000D02*
X13812090Y-7370000D01*
X13812090Y-7330000D02*
X13772090Y-7370000D01*
X13797442Y-7430000D02*
X13837442Y-7470000D01*
X13837442Y-7430000D02*
X13797442Y-7470000D01*
X13805000Y-7955000D02*
X13845000Y-7995000D01*
X13845000Y-7955000D02*
X13805000Y-7995000D01*
X13824400Y-7518641D02*
X13864400Y-7558641D01*
X13864400Y-7518641D02*
X13824400Y-7558641D01*
X13848400Y-9632000D02*
X13888400Y-9672000D01*
X13888400Y-9632000D02*
X13848400Y-9672000D01*
X13873800Y-9052880D02*
X13913800Y-9092880D01*
X13913800Y-9052880D02*
X13873800Y-9092880D01*
X13899200Y-6025200D02*
X13939200Y-6065200D01*
X13939200Y-6025200D02*
X13899200Y-6065200D01*
X14005000Y-5730000D02*
X14045000Y-5770000D01*
X14045000Y-5730000D02*
X14005000Y-5770000D01*
X14026200Y-9682800D02*
X14066200Y-9722800D01*
X14066200Y-9682800D02*
X14026200Y-9722800D01*
X14064000Y-5812635D02*
X14104000Y-5852635D01*
X14104000Y-5812635D02*
X14064000Y-5852635D01*
X14089352Y-5905000D02*
X14129352Y-5945000D01*
X14129352Y-5905000D02*
X14089352Y-5945000D01*
X14114704Y-5995697D02*
X14154704Y-6035697D01*
X14154704Y-5995697D02*
X14114704Y-6035697D01*
X14430000Y-7430000D02*
X14470000Y-7470000D01*
X14470000Y-7430000D02*
X14430000Y-7470000D01*
X14430000Y-7522650D02*
X14470000Y-7562650D01*
X14470000Y-7522650D02*
X14430000Y-7562650D01*
X14430000Y-7615301D02*
X14470000Y-7655301D01*
X14470000Y-7615301D02*
X14430000Y-7655301D01*
X14430000Y-7707951D02*
X14470000Y-7747951D01*
X14470000Y-7707951D02*
X14430000Y-7747951D01*
X14430000Y-7800601D02*
X14470000Y-7840601D01*
X14470000Y-7800601D02*
X14430000Y-7840601D01*
X14432600Y-7244400D02*
X14472600Y-7284400D01*
X14472600Y-7244400D02*
X14432600Y-7284400D01*
X14432600Y-7337050D02*
X14472600Y-7377050D01*
X14472600Y-7337050D02*
X14432600Y-7377050D01*
X14635800Y-8539800D02*
X14675800Y-8579800D01*
X14675800Y-8539800D02*
X14635800Y-8579800D01*
X14635800Y-8666800D02*
X14675800Y-8706800D01*
X14675800Y-8666800D02*
X14635800Y-8706800D01*
X14635800Y-8793800D02*
X14675800Y-8833800D01*
X14675800Y-8793800D02*
X14635800Y-8833800D01*
X14635800Y-8920800D02*
X14675800Y-8960800D01*
X14675800Y-8920800D02*
X14635800Y-8960800D01*
X15019414Y-9547744D02*
X15059414Y-9587744D01*
X15059414Y-9547744D02*
X15019414Y-9587744D01*
X15728000Y-5579999D02*
X15768000Y-5619999D01*
X15768000Y-5579999D02*
X15728000Y-5619999D01*
X15753400Y-9428800D02*
X15793400Y-9468800D01*
X15793400Y-9428800D02*
X15753400Y-9468800D01*
X15762740Y-5494108D02*
X15802740Y-5534108D01*
X15802740Y-5494108D02*
X15762740Y-5534108D01*
X15819753Y-5421077D02*
X15859753Y-5461077D01*
X15859753Y-5421077D02*
X15819753Y-5461077D01*
X15855000Y-5774055D02*
X15895000Y-5814055D01*
X15895000Y-5774055D02*
X15855000Y-5814055D01*
X15855000Y-5866705D02*
X15895000Y-5906705D01*
X15895000Y-5866705D02*
X15855000Y-5906705D01*
X15855000Y-5959355D02*
X15895000Y-5999355D01*
X15895000Y-5959355D02*
X15855000Y-5999355D01*
X15855000Y-6052006D02*
X15895000Y-6092006D01*
X15895000Y-6052006D02*
X15855000Y-6092006D01*
X15878435Y-5349379D02*
X15918435Y-5389379D01*
X15918435Y-5349379D02*
X15878435Y-5389379D01*
X16871000Y-5085400D02*
X16911000Y-5125400D01*
X16911000Y-5085400D02*
X16871000Y-5125400D01*
D13*
X12191200Y-5791200D02*
G75*
G03*
X12191200Y-5791200I-50000J0D01*
G01*
X12191200Y-6045200D02*
G75*
G03*
X12191200Y-6045200I-50000J0D01*
G01*
X12191200Y-6299200D02*
G75*
G03*
X12191200Y-6299200I-50000J0D01*
G01*
D14*
X15417800Y-4696000D02*
X15417800Y-4798000D01*
X15366800Y-4747000D02*
X15468800Y-4747000D01*
X15417800Y-4950000D02*
X15417800Y-5052000D01*
X15366800Y-5001000D02*
X15468800Y-5001000D01*
X15417800Y-5204000D02*
X15417800Y-5306000D01*
X15366800Y-5255000D02*
X15468800Y-5255000D01*
X15417800Y-5458000D02*
X15417800Y-5560000D01*
X15366800Y-5509000D02*
X15468800Y-5509000D01*
X15417800Y-5712000D02*
X15417800Y-5814000D01*
X15366800Y-5763000D02*
X15468800Y-5763000D01*
X15417800Y-5966000D02*
X15417800Y-6068000D01*
X15366800Y-6017000D02*
X15468800Y-6017000D01*
X15417800Y-6220000D02*
X15417800Y-6322000D01*
X15366800Y-6271000D02*
X15468800Y-6271000D01*
X15417800Y-6474000D02*
X15417800Y-6576000D01*
X15366800Y-6525000D02*
X15468800Y-6525000D01*
X15417800Y-6728000D02*
X15417800Y-6830000D01*
X15366800Y-6779000D02*
X15468800Y-6779000D01*
X15417800Y-6982000D02*
X15417800Y-7084000D01*
X15366800Y-7033000D02*
X15468800Y-7033000D01*
X15417800Y-7236000D02*
X15417800Y-7338000D01*
X15366800Y-7287000D02*
X15468800Y-7287000D01*
X15417800Y-7490000D02*
X15417800Y-7592000D01*
X15366800Y-7541000D02*
X15468800Y-7541000D01*
X15417800Y-7744000D02*
X15417800Y-7846000D01*
X15366800Y-7795000D02*
X15468800Y-7795000D01*
X15417800Y-7998000D02*
X15417800Y-8100000D01*
X15366800Y-8049000D02*
X15468800Y-8049000D01*
X15417800Y-8252000D02*
X15417800Y-8354000D01*
X15366800Y-8303000D02*
X15468800Y-8303000D01*
X15417800Y-8506000D02*
X15417800Y-8608000D01*
X15366800Y-8557000D02*
X15468800Y-8557000D01*
X15417800Y-8760000D02*
X15417800Y-8862000D01*
X15366800Y-8811000D02*
X15468800Y-8811000D01*
X15417800Y-9014000D02*
X15417800Y-9116000D01*
X15366800Y-9065000D02*
X15468800Y-9065000D01*
X15417800Y-9268000D02*
X15417800Y-9370000D01*
X15366800Y-9319000D02*
X15468800Y-9319000D01*
X15417800Y-9522000D02*
X15417800Y-9624000D01*
X15366800Y-9573000D02*
X15468800Y-9573000D01*
X17195800Y-4696000D02*
X17195800Y-4798000D01*
X17144800Y-4747000D02*
X17246800Y-4747000D01*
X17195800Y-4950000D02*
X17195800Y-5052000D01*
X17144800Y-5001000D02*
X17246800Y-5001000D01*
X17195800Y-5204000D02*
X17195800Y-5306000D01*
X17144800Y-5255000D02*
X17246800Y-5255000D01*
X17195800Y-5458000D02*
X17195800Y-5560000D01*
X17144800Y-5509000D02*
X17246800Y-5509000D01*
X17195800Y-5712000D02*
X17195800Y-5814000D01*
X17144800Y-5763000D02*
X17246800Y-5763000D01*
X17195800Y-5966000D02*
X17195800Y-6068000D01*
X17144800Y-6017000D02*
X17246800Y-6017000D01*
X17195800Y-6220000D02*
X17195800Y-6322000D01*
X17144800Y-6271000D02*
X17246800Y-6271000D01*
X17195800Y-6474000D02*
X17195800Y-6576000D01*
X17144800Y-6525000D02*
X17246800Y-6525000D01*
X17195800Y-6728000D02*
X17195800Y-6830000D01*
X17144800Y-6779000D02*
X17246800Y-6779000D01*
X17195800Y-6982000D02*
X17195800Y-7084000D01*
X17144800Y-7033000D02*
X17246800Y-7033000D01*
X17195800Y-7236000D02*
X17195800Y-7338000D01*
X17144800Y-7287000D02*
X17246800Y-7287000D01*
X17195800Y-7490000D02*
X17195800Y-7592000D01*
X17144800Y-7541000D02*
X17246800Y-7541000D01*
X17195800Y-7744000D02*
X17195800Y-7846000D01*
X17144800Y-7795000D02*
X17246800Y-7795000D01*
X17195800Y-7998000D02*
X17195800Y-8100000D01*
X17144800Y-8049000D02*
X17246800Y-8049000D01*
X17195800Y-8252000D02*
X17195800Y-8354000D01*
X17144800Y-8303000D02*
X17246800Y-8303000D01*
X17195800Y-8506000D02*
X17195800Y-8608000D01*
X17144800Y-8557000D02*
X17246800Y-8557000D01*
X17195800Y-8760000D02*
X17195800Y-8862000D01*
X17144800Y-8811000D02*
X17246800Y-8811000D01*
X17195800Y-9014000D02*
X17195800Y-9116000D01*
X17144800Y-9065000D02*
X17246800Y-9065000D01*
X17195800Y-9268000D02*
X17195800Y-9370000D01*
X17144800Y-9319000D02*
X17246800Y-9319000D01*
X17195800Y-9522000D02*
X17195800Y-9624000D01*
X17144800Y-9573000D02*
X17246800Y-9573000D01*
D11*
X12086319Y-11046576D02*
X12086319Y-10846576D01*
X12133938Y-10846576D01*
X12162509Y-10856100D01*
X12181557Y-10875148D01*
X12191081Y-10894195D01*
X12200605Y-10932290D01*
X12200605Y-10960862D01*
X12191081Y-10998957D01*
X12181557Y-11018005D01*
X12162509Y-11037052D01*
X12133938Y-11046576D01*
X12086319Y-11046576D01*
X12286319Y-11046576D02*
X12286319Y-10913243D01*
X12286319Y-10951338D02*
X12295843Y-10932290D01*
X12305367Y-10922767D01*
X12324414Y-10913243D01*
X12343462Y-10913243D01*
X12410128Y-11046576D02*
X12410128Y-10913243D01*
X12410128Y-10846576D02*
X12400605Y-10856100D01*
X12410128Y-10865624D01*
X12419652Y-10856100D01*
X12410128Y-10846576D01*
X12410128Y-10865624D01*
X12533938Y-11046576D02*
X12514890Y-11037052D01*
X12505367Y-11018005D01*
X12505367Y-10846576D01*
X12638700Y-11046576D02*
X12619652Y-11037052D01*
X12610128Y-11018005D01*
X12610128Y-10846576D01*
X12867271Y-11046576D02*
X12867271Y-10846576D01*
X12933938Y-10989433D01*
X13000605Y-10846576D01*
X13000605Y-11046576D01*
X13181557Y-11046576D02*
X13181557Y-10941814D01*
X13172033Y-10922767D01*
X13152986Y-10913243D01*
X13114890Y-10913243D01*
X13095843Y-10922767D01*
X13181557Y-11037052D02*
X13162509Y-11046576D01*
X13114890Y-11046576D01*
X13095843Y-11037052D01*
X13086319Y-11018005D01*
X13086319Y-10998957D01*
X13095843Y-10979910D01*
X13114890Y-10970386D01*
X13162509Y-10970386D01*
X13181557Y-10960862D01*
X13276795Y-10913243D02*
X13276795Y-11113243D01*
X13276795Y-10922767D02*
X13295843Y-10913243D01*
X13333938Y-10913243D01*
X13352986Y-10922767D01*
X13362509Y-10932290D01*
X13372033Y-10951338D01*
X13372033Y-11008481D01*
X13362509Y-11027529D01*
X13352986Y-11037052D01*
X13333938Y-11046576D01*
X13295843Y-11046576D01*
X13276795Y-11037052D01*
X13457748Y-11027529D02*
X13467271Y-11037052D01*
X13457748Y-11046576D01*
X13448224Y-11037052D01*
X13457748Y-11027529D01*
X13457748Y-11046576D01*
X13457748Y-10922767D02*
X13467271Y-10932290D01*
X13457748Y-10941814D01*
X13448224Y-10932290D01*
X13457748Y-10922767D01*
X13457748Y-10941814D01*
D12*
X11788700Y-11356100D02*
X11828700Y-11396100D01*
X11828700Y-11356100D02*
X11788700Y-11396100D01*
D11*
X12124414Y-11266576D02*
X12143462Y-11266576D01*
X12162509Y-11276100D01*
X12172033Y-11285624D01*
X12181557Y-11304671D01*
X12191081Y-11342767D01*
X12191081Y-11390386D01*
X12181557Y-11428481D01*
X12172033Y-11447528D01*
X12162509Y-11457052D01*
X12143462Y-11466576D01*
X12124414Y-11466576D01*
X12105367Y-11457052D01*
X12095843Y-11447528D01*
X12086319Y-11428481D01*
X12076795Y-11390386D01*
X12076795Y-11342767D01*
X12086319Y-11304671D01*
X12095843Y-11285624D01*
X12105367Y-11276100D01*
X12124414Y-11266576D01*
X12276795Y-11447528D02*
X12286319Y-11457052D01*
X12276795Y-11466576D01*
X12267271Y-11457052D01*
X12276795Y-11447528D01*
X12276795Y-11466576D01*
X12457748Y-11333243D02*
X12457748Y-11466576D01*
X12410128Y-11257052D02*
X12362509Y-11399909D01*
X12486319Y-11399909D01*
X12600605Y-11266576D02*
X12619652Y-11266576D01*
X12638700Y-11276100D01*
X12648224Y-11285624D01*
X12657748Y-11304671D01*
X12667271Y-11342767D01*
X12667271Y-11390386D01*
X12657748Y-11428481D01*
X12648224Y-11447528D01*
X12638700Y-11457052D01*
X12619652Y-11466576D01*
X12600605Y-11466576D01*
X12581557Y-11457052D01*
X12572033Y-11447528D01*
X12562509Y-11428481D01*
X12552986Y-11390386D01*
X12552986Y-11342767D01*
X12562509Y-11304671D01*
X12572033Y-11285624D01*
X12581557Y-11276100D01*
X12600605Y-11266576D01*
X12791081Y-11266576D02*
X12810128Y-11266576D01*
X12829176Y-11276100D01*
X12838700Y-11285624D01*
X12848224Y-11304671D01*
X12857748Y-11342767D01*
X12857748Y-11390386D01*
X12848224Y-11428481D01*
X12838700Y-11447528D01*
X12829176Y-11457052D01*
X12810128Y-11466576D01*
X12791081Y-11466576D01*
X12772033Y-11457052D01*
X12762509Y-11447528D01*
X12752986Y-11428481D01*
X12743462Y-11390386D01*
X12743462Y-11342767D01*
X12752986Y-11304671D01*
X12762509Y-11285624D01*
X12772033Y-11276100D01*
X12791081Y-11266576D01*
X12943462Y-11466576D02*
X12943462Y-11333243D01*
X12943462Y-11352290D02*
X12952986Y-11342767D01*
X12972033Y-11333243D01*
X13000605Y-11333243D01*
X13019652Y-11342767D01*
X13029176Y-11361814D01*
X13029176Y-11466576D01*
X13029176Y-11361814D02*
X13038700Y-11342767D01*
X13057748Y-11333243D01*
X13086319Y-11333243D01*
X13105367Y-11342767D01*
X13114890Y-11361814D01*
X13114890Y-11466576D01*
X13210128Y-11466576D02*
X13210128Y-11333243D01*
X13210128Y-11352290D02*
X13219652Y-11342767D01*
X13238700Y-11333243D01*
X13267271Y-11333243D01*
X13286319Y-11342767D01*
X13295843Y-11361814D01*
X13295843Y-11466576D01*
X13295843Y-11361814D02*
X13305367Y-11342767D01*
X13324414Y-11333243D01*
X13352986Y-11333243D01*
X13372033Y-11342767D01*
X13381557Y-11361814D01*
X13381557Y-11466576D01*
X13772033Y-11257052D02*
X13600605Y-11514195D01*
X14029176Y-11266576D02*
X14048224Y-11266576D01*
X14067271Y-11276100D01*
X14076795Y-11285624D01*
X14086319Y-11304671D01*
X14095843Y-11342767D01*
X14095843Y-11390386D01*
X14086319Y-11428481D01*
X14076795Y-11447528D01*
X14067271Y-11457052D01*
X14048224Y-11466576D01*
X14029176Y-11466576D01*
X14010128Y-11457052D01*
X14000605Y-11447528D01*
X13991081Y-11428481D01*
X13981557Y-11390386D01*
X13981557Y-11342767D01*
X13991081Y-11304671D01*
X14000605Y-11285624D01*
X14010128Y-11276100D01*
X14029176Y-11266576D01*
X14181557Y-11447528D02*
X14191081Y-11457052D01*
X14181557Y-11466576D01*
X14172033Y-11457052D01*
X14181557Y-11447528D01*
X14181557Y-11466576D01*
X14314890Y-11266576D02*
X14333938Y-11266576D01*
X14352986Y-11276100D01*
X14362509Y-11285624D01*
X14372033Y-11304671D01*
X14381557Y-11342767D01*
X14381557Y-11390386D01*
X14372033Y-11428481D01*
X14362509Y-11447528D01*
X14352986Y-11457052D01*
X14333938Y-11466576D01*
X14314890Y-11466576D01*
X14295843Y-11457052D01*
X14286319Y-11447528D01*
X14276795Y-11428481D01*
X14267271Y-11390386D01*
X14267271Y-11342767D01*
X14276795Y-11304671D01*
X14286319Y-11285624D01*
X14295843Y-11276100D01*
X14314890Y-11266576D01*
X14572033Y-11466576D02*
X14457748Y-11466576D01*
X14514890Y-11466576D02*
X14514890Y-11266576D01*
X14495843Y-11295148D01*
X14476795Y-11314195D01*
X14457748Y-11323719D01*
X14752986Y-11266576D02*
X14657748Y-11266576D01*
X14648224Y-11361814D01*
X14657748Y-11352290D01*
X14676795Y-11342767D01*
X14724414Y-11342767D01*
X14743462Y-11352290D01*
X14752986Y-11361814D01*
X14762509Y-11380862D01*
X14762509Y-11428481D01*
X14752986Y-11447528D01*
X14743462Y-11457052D01*
X14724414Y-11466576D01*
X14676795Y-11466576D01*
X14657748Y-11457052D01*
X14648224Y-11447528D01*
X14829176Y-11266576D02*
X14962509Y-11266576D01*
X14876795Y-11466576D01*
X15029176Y-11266576D02*
X15029176Y-11304671D01*
X15105367Y-11266576D02*
X15105367Y-11304671D01*
X15400605Y-11542767D02*
X15391081Y-11533243D01*
X15372033Y-11504671D01*
X15362509Y-11485624D01*
X15352986Y-11457052D01*
X15343462Y-11409433D01*
X15343462Y-11371338D01*
X15352986Y-11323719D01*
X15362509Y-11295148D01*
X15372033Y-11276100D01*
X15391081Y-11247528D01*
X15400605Y-11238005D01*
X15457748Y-11266576D02*
X15591081Y-11266576D01*
X15505367Y-11466576D01*
X15657748Y-11285624D02*
X15667271Y-11276100D01*
X15686319Y-11266576D01*
X15733938Y-11266576D01*
X15752986Y-11276100D01*
X15762509Y-11285624D01*
X15772033Y-11304671D01*
X15772033Y-11323719D01*
X15762509Y-11352290D01*
X15648224Y-11466576D01*
X15772033Y-11466576D01*
X16010128Y-11466576D02*
X16010128Y-11266576D01*
X16095843Y-11466576D02*
X16095843Y-11361814D01*
X16086319Y-11342767D01*
X16067271Y-11333243D01*
X16038700Y-11333243D01*
X16019652Y-11342767D01*
X16010128Y-11352290D01*
X16219652Y-11466576D02*
X16200605Y-11457052D01*
X16191081Y-11447528D01*
X16181557Y-11428481D01*
X16181557Y-11371338D01*
X16191081Y-11352290D01*
X16200605Y-11342767D01*
X16219652Y-11333243D01*
X16248224Y-11333243D01*
X16267271Y-11342767D01*
X16276795Y-11352290D01*
X16286319Y-11371338D01*
X16286319Y-11428481D01*
X16276795Y-11447528D01*
X16267271Y-11457052D01*
X16248224Y-11466576D01*
X16219652Y-11466576D01*
X16400605Y-11466576D02*
X16381557Y-11457052D01*
X16372033Y-11438005D01*
X16372033Y-11266576D01*
X16552986Y-11457052D02*
X16533938Y-11466576D01*
X16495843Y-11466576D01*
X16476795Y-11457052D01*
X16467271Y-11438005D01*
X16467271Y-11361814D01*
X16476795Y-11342767D01*
X16495843Y-11333243D01*
X16533938Y-11333243D01*
X16552986Y-11342767D01*
X16562509Y-11361814D01*
X16562509Y-11380862D01*
X16467271Y-11399909D01*
X16638700Y-11457052D02*
X16657748Y-11466576D01*
X16695843Y-11466576D01*
X16714890Y-11457052D01*
X16724414Y-11438005D01*
X16724414Y-11428481D01*
X16714890Y-11409433D01*
X16695843Y-11399909D01*
X16667271Y-11399909D01*
X16648224Y-11390386D01*
X16638700Y-11371338D01*
X16638700Y-11361814D01*
X16648224Y-11342767D01*
X16667271Y-11333243D01*
X16695843Y-11333243D01*
X16714890Y-11342767D01*
X16791081Y-11542767D02*
X16800605Y-11533243D01*
X16819652Y-11504671D01*
X16829176Y-11485624D01*
X16838700Y-11457052D01*
X16848224Y-11409433D01*
X16848224Y-11371338D01*
X16838700Y-11323719D01*
X16829176Y-11295148D01*
X16819652Y-11276100D01*
X16800605Y-11247528D01*
X16791081Y-11238005D01*
D13*
X11828700Y-11640100D02*
G75*
G03*
X11828700Y-11640100I-50000J0D01*
G01*
D11*
X12191081Y-11730576D02*
X12076795Y-11730576D01*
X12133938Y-11730576D02*
X12133938Y-11530576D01*
X12114890Y-11559148D01*
X12095843Y-11578195D01*
X12076795Y-11587719D01*
X12276795Y-11711528D02*
X12286319Y-11721052D01*
X12276795Y-11730576D01*
X12267271Y-11721052D01*
X12276795Y-11711528D01*
X12276795Y-11730576D01*
X12410128Y-11530576D02*
X12429176Y-11530576D01*
X12448224Y-11540100D01*
X12457748Y-11549624D01*
X12467271Y-11568671D01*
X12476795Y-11606767D01*
X12476795Y-11654386D01*
X12467271Y-11692481D01*
X12457748Y-11711528D01*
X12448224Y-11721052D01*
X12429176Y-11730576D01*
X12410128Y-11730576D01*
X12391081Y-11721052D01*
X12381557Y-11711528D01*
X12372033Y-11692481D01*
X12362509Y-11654386D01*
X12362509Y-11606767D01*
X12372033Y-11568671D01*
X12381557Y-11549624D01*
X12391081Y-11540100D01*
X12410128Y-11530576D01*
X12600605Y-11530576D02*
X12619652Y-11530576D01*
X12638700Y-11540100D01*
X12648224Y-11549624D01*
X12657748Y-11568671D01*
X12667271Y-11606767D01*
X12667271Y-11654386D01*
X12657748Y-11692481D01*
X12648224Y-11711528D01*
X12638700Y-11721052D01*
X12619652Y-11730576D01*
X12600605Y-11730576D01*
X12581557Y-11721052D01*
X12572033Y-11711528D01*
X12562509Y-11692481D01*
X12552986Y-11654386D01*
X12552986Y-11606767D01*
X12562509Y-11568671D01*
X12572033Y-11549624D01*
X12581557Y-11540100D01*
X12600605Y-11530576D01*
X12791081Y-11530576D02*
X12810128Y-11530576D01*
X12829176Y-11540100D01*
X12838700Y-11549624D01*
X12848224Y-11568671D01*
X12857748Y-11606767D01*
X12857748Y-11654386D01*
X12848224Y-11692481D01*
X12838700Y-11711528D01*
X12829176Y-11721052D01*
X12810128Y-11730576D01*
X12791081Y-11730576D01*
X12772033Y-11721052D01*
X12762509Y-11711528D01*
X12752986Y-11692481D01*
X12743462Y-11654386D01*
X12743462Y-11606767D01*
X12752986Y-11568671D01*
X12762509Y-11549624D01*
X12772033Y-11540100D01*
X12791081Y-11530576D01*
X12943462Y-11730576D02*
X12943462Y-11597243D01*
X12943462Y-11616290D02*
X12952986Y-11606767D01*
X12972033Y-11597243D01*
X13000605Y-11597243D01*
X13019652Y-11606767D01*
X13029176Y-11625814D01*
X13029176Y-11730576D01*
X13029176Y-11625814D02*
X13038700Y-11606767D01*
X13057748Y-11597243D01*
X13086319Y-11597243D01*
X13105367Y-11606767D01*
X13114890Y-11625814D01*
X13114890Y-11730576D01*
X13210128Y-11730576D02*
X13210128Y-11597243D01*
X13210128Y-11616290D02*
X13219652Y-11606767D01*
X13238700Y-11597243D01*
X13267271Y-11597243D01*
X13286319Y-11606767D01*
X13295843Y-11625814D01*
X13295843Y-11730576D01*
X13295843Y-11625814D02*
X13305367Y-11606767D01*
X13324414Y-11597243D01*
X13352986Y-11597243D01*
X13372033Y-11606767D01*
X13381557Y-11625814D01*
X13381557Y-11730576D01*
X13772033Y-11521052D02*
X13600605Y-11778195D01*
X14029176Y-11530576D02*
X14048224Y-11530576D01*
X14067271Y-11540100D01*
X14076795Y-11549624D01*
X14086319Y-11568671D01*
X14095843Y-11606767D01*
X14095843Y-11654386D01*
X14086319Y-11692481D01*
X14076795Y-11711528D01*
X14067271Y-11721052D01*
X14048224Y-11730576D01*
X14029176Y-11730576D01*
X14010128Y-11721052D01*
X14000605Y-11711528D01*
X13991081Y-11692481D01*
X13981557Y-11654386D01*
X13981557Y-11606767D01*
X13991081Y-11568671D01*
X14000605Y-11549624D01*
X14010128Y-11540100D01*
X14029176Y-11530576D01*
X14181557Y-11711528D02*
X14191081Y-11721052D01*
X14181557Y-11730576D01*
X14172033Y-11721052D01*
X14181557Y-11711528D01*
X14181557Y-11730576D01*
X14314890Y-11530576D02*
X14333938Y-11530576D01*
X14352986Y-11540100D01*
X14362509Y-11549624D01*
X14372033Y-11568671D01*
X14381557Y-11606767D01*
X14381557Y-11654386D01*
X14372033Y-11692481D01*
X14362509Y-11711528D01*
X14352986Y-11721052D01*
X14333938Y-11730576D01*
X14314890Y-11730576D01*
X14295843Y-11721052D01*
X14286319Y-11711528D01*
X14276795Y-11692481D01*
X14267271Y-11654386D01*
X14267271Y-11606767D01*
X14276795Y-11568671D01*
X14286319Y-11549624D01*
X14295843Y-11540100D01*
X14314890Y-11530576D01*
X14448224Y-11530576D02*
X14572033Y-11530576D01*
X14505367Y-11606767D01*
X14533938Y-11606767D01*
X14552986Y-11616290D01*
X14562509Y-11625814D01*
X14572033Y-11644862D01*
X14572033Y-11692481D01*
X14562509Y-11711528D01*
X14552986Y-11721052D01*
X14533938Y-11730576D01*
X14476795Y-11730576D01*
X14457748Y-11721052D01*
X14448224Y-11711528D01*
X14667271Y-11730576D02*
X14705367Y-11730576D01*
X14724414Y-11721052D01*
X14733938Y-11711528D01*
X14752986Y-11682957D01*
X14762509Y-11644862D01*
X14762509Y-11568671D01*
X14752986Y-11549624D01*
X14743462Y-11540100D01*
X14724414Y-11530576D01*
X14686319Y-11530576D01*
X14667271Y-11540100D01*
X14657748Y-11549624D01*
X14648224Y-11568671D01*
X14648224Y-11616290D01*
X14657748Y-11635338D01*
X14667271Y-11644862D01*
X14686319Y-11654386D01*
X14724414Y-11654386D01*
X14743462Y-11644862D01*
X14752986Y-11635338D01*
X14762509Y-11616290D01*
X14933938Y-11597243D02*
X14933938Y-11730576D01*
X14886319Y-11521052D02*
X14838700Y-11663909D01*
X14962509Y-11663909D01*
X15029176Y-11530576D02*
X15029176Y-11568671D01*
X15105367Y-11530576D02*
X15105367Y-11568671D01*
X15400605Y-11806767D02*
X15391081Y-11797243D01*
X15372033Y-11768671D01*
X15362509Y-11749624D01*
X15352986Y-11721052D01*
X15343462Y-11673433D01*
X15343462Y-11635338D01*
X15352986Y-11587719D01*
X15362509Y-11559148D01*
X15372033Y-11540100D01*
X15391081Y-11511528D01*
X15400605Y-11502005D01*
X15457748Y-11530576D02*
X15581557Y-11530576D01*
X15514890Y-11606767D01*
X15543462Y-11606767D01*
X15562509Y-11616290D01*
X15572033Y-11625814D01*
X15581557Y-11644862D01*
X15581557Y-11692481D01*
X15572033Y-11711528D01*
X15562509Y-11721052D01*
X15543462Y-11730576D01*
X15486319Y-11730576D01*
X15467271Y-11721052D01*
X15457748Y-11711528D01*
X15819652Y-11730576D02*
X15819652Y-11530576D01*
X15905367Y-11730576D02*
X15905367Y-11625814D01*
X15895843Y-11606767D01*
X15876795Y-11597243D01*
X15848224Y-11597243D01*
X15829176Y-11606767D01*
X15819652Y-11616290D01*
X16029176Y-11730576D02*
X16010128Y-11721052D01*
X16000605Y-11711528D01*
X15991081Y-11692481D01*
X15991081Y-11635338D01*
X16000605Y-11616290D01*
X16010128Y-11606767D01*
X16029176Y-11597243D01*
X16057748Y-11597243D01*
X16076795Y-11606767D01*
X16086319Y-11616290D01*
X16095843Y-11635338D01*
X16095843Y-11692481D01*
X16086319Y-11711528D01*
X16076795Y-11721052D01*
X16057748Y-11730576D01*
X16029176Y-11730576D01*
X16210128Y-11730576D02*
X16191081Y-11721052D01*
X16181557Y-11702005D01*
X16181557Y-11530576D01*
X16362509Y-11721052D02*
X16343462Y-11730576D01*
X16305367Y-11730576D01*
X16286319Y-11721052D01*
X16276795Y-11702005D01*
X16276795Y-11625814D01*
X16286319Y-11606767D01*
X16305367Y-11597243D01*
X16343462Y-11597243D01*
X16362509Y-11606767D01*
X16372033Y-11625814D01*
X16372033Y-11644862D01*
X16276795Y-11663909D01*
X16448224Y-11721052D02*
X16467271Y-11730576D01*
X16505367Y-11730576D01*
X16524414Y-11721052D01*
X16533938Y-11702005D01*
X16533938Y-11692481D01*
X16524414Y-11673433D01*
X16505367Y-11663909D01*
X16476795Y-11663909D01*
X16457748Y-11654386D01*
X16448224Y-11635338D01*
X16448224Y-11625814D01*
X16457748Y-11606767D01*
X16476795Y-11597243D01*
X16505367Y-11597243D01*
X16524414Y-11606767D01*
X16600605Y-11806767D02*
X16610128Y-11797243D01*
X16629176Y-11768671D01*
X16638700Y-11749624D01*
X16648224Y-11721052D01*
X16657748Y-11673433D01*
X16657748Y-11635338D01*
X16648224Y-11587719D01*
X16638700Y-11559148D01*
X16629176Y-11540100D01*
X16610128Y-11511528D01*
X16600605Y-11502005D01*
D14*
X11777700Y-11853100D02*
X11777700Y-11955100D01*
X11726700Y-11904100D02*
X11828700Y-11904100D01*
D11*
X12191081Y-11994576D02*
X12076795Y-11994576D01*
X12133938Y-11994576D02*
X12133938Y-11794576D01*
X12114890Y-11823148D01*
X12095843Y-11842195D01*
X12076795Y-11851719D01*
X12276795Y-11975528D02*
X12286319Y-11985052D01*
X12276795Y-11994576D01*
X12267271Y-11985052D01*
X12276795Y-11975528D01*
X12276795Y-11994576D01*
X12410128Y-11794576D02*
X12429176Y-11794576D01*
X12448224Y-11804100D01*
X12457748Y-11813624D01*
X12467271Y-11832671D01*
X12476795Y-11870767D01*
X12476795Y-11918386D01*
X12467271Y-11956481D01*
X12457748Y-11975528D01*
X12448224Y-11985052D01*
X12429176Y-11994576D01*
X12410128Y-11994576D01*
X12391081Y-11985052D01*
X12381557Y-11975528D01*
X12372033Y-11956481D01*
X12362509Y-11918386D01*
X12362509Y-11870767D01*
X12372033Y-11832671D01*
X12381557Y-11813624D01*
X12391081Y-11804100D01*
X12410128Y-11794576D01*
X12552986Y-11813624D02*
X12562509Y-11804100D01*
X12581557Y-11794576D01*
X12629176Y-11794576D01*
X12648224Y-11804100D01*
X12657748Y-11813624D01*
X12667271Y-11832671D01*
X12667271Y-11851719D01*
X12657748Y-11880290D01*
X12543462Y-11994576D01*
X12667271Y-11994576D01*
X12791081Y-11794576D02*
X12810128Y-11794576D01*
X12829176Y-11804100D01*
X12838700Y-11813624D01*
X12848224Y-11832671D01*
X12857748Y-11870767D01*
X12857748Y-11918386D01*
X12848224Y-11956481D01*
X12838700Y-11975528D01*
X12829176Y-11985052D01*
X12810128Y-11994576D01*
X12791081Y-11994576D01*
X12772033Y-11985052D01*
X12762509Y-11975528D01*
X12752986Y-11956481D01*
X12743462Y-11918386D01*
X12743462Y-11870767D01*
X12752986Y-11832671D01*
X12762509Y-11813624D01*
X12772033Y-11804100D01*
X12791081Y-11794576D01*
X12943462Y-11994576D02*
X12943462Y-11861243D01*
X12943462Y-11880290D02*
X12952986Y-11870767D01*
X12972033Y-11861243D01*
X13000605Y-11861243D01*
X13019652Y-11870767D01*
X13029176Y-11889814D01*
X13029176Y-11994576D01*
X13029176Y-11889814D02*
X13038700Y-11870767D01*
X13057748Y-11861243D01*
X13086319Y-11861243D01*
X13105367Y-11870767D01*
X13114890Y-11889814D01*
X13114890Y-11994576D01*
X13210128Y-11994576D02*
X13210128Y-11861243D01*
X13210128Y-11880290D02*
X13219652Y-11870767D01*
X13238700Y-11861243D01*
X13267271Y-11861243D01*
X13286319Y-11870767D01*
X13295843Y-11889814D01*
X13295843Y-11994576D01*
X13295843Y-11889814D02*
X13305367Y-11870767D01*
X13324414Y-11861243D01*
X13352986Y-11861243D01*
X13372033Y-11870767D01*
X13381557Y-11889814D01*
X13381557Y-11994576D01*
X13772033Y-11785052D02*
X13600605Y-12042195D01*
X14029176Y-11794576D02*
X14048224Y-11794576D01*
X14067271Y-11804100D01*
X14076795Y-11813624D01*
X14086319Y-11832671D01*
X14095843Y-11870767D01*
X14095843Y-11918386D01*
X14086319Y-11956481D01*
X14076795Y-11975528D01*
X14067271Y-11985052D01*
X14048224Y-11994576D01*
X14029176Y-11994576D01*
X14010128Y-11985052D01*
X14000605Y-11975528D01*
X13991081Y-11956481D01*
X13981557Y-11918386D01*
X13981557Y-11870767D01*
X13991081Y-11832671D01*
X14000605Y-11813624D01*
X14010128Y-11804100D01*
X14029176Y-11794576D01*
X14181557Y-11975528D02*
X14191081Y-11985052D01*
X14181557Y-11994576D01*
X14172033Y-11985052D01*
X14181557Y-11975528D01*
X14181557Y-11994576D01*
X14314890Y-11794576D02*
X14333938Y-11794576D01*
X14352986Y-11804100D01*
X14362509Y-11813624D01*
X14372033Y-11832671D01*
X14381557Y-11870767D01*
X14381557Y-11918386D01*
X14372033Y-11956481D01*
X14362509Y-11975528D01*
X14352986Y-11985052D01*
X14333938Y-11994576D01*
X14314890Y-11994576D01*
X14295843Y-11985052D01*
X14286319Y-11975528D01*
X14276795Y-11956481D01*
X14267271Y-11918386D01*
X14267271Y-11870767D01*
X14276795Y-11832671D01*
X14286319Y-11813624D01*
X14295843Y-11804100D01*
X14314890Y-11794576D01*
X14552986Y-11861243D02*
X14552986Y-11994576D01*
X14505367Y-11785052D02*
X14457748Y-11927909D01*
X14581557Y-11927909D01*
X14695843Y-11794576D02*
X14714890Y-11794576D01*
X14733938Y-11804100D01*
X14743462Y-11813624D01*
X14752986Y-11832671D01*
X14762509Y-11870767D01*
X14762509Y-11918386D01*
X14752986Y-11956481D01*
X14743462Y-11975528D01*
X14733938Y-11985052D01*
X14714890Y-11994576D01*
X14695843Y-11994576D01*
X14676795Y-11985052D01*
X14667271Y-11975528D01*
X14657748Y-11956481D01*
X14648224Y-11918386D01*
X14648224Y-11870767D01*
X14657748Y-11832671D01*
X14667271Y-11813624D01*
X14676795Y-11804100D01*
X14695843Y-11794576D01*
X14838700Y-11813624D02*
X14848224Y-11804100D01*
X14867271Y-11794576D01*
X14914890Y-11794576D01*
X14933938Y-11804100D01*
X14943462Y-11813624D01*
X14952986Y-11832671D01*
X14952986Y-11851719D01*
X14943462Y-11880290D01*
X14829176Y-11994576D01*
X14952986Y-11994576D01*
X15029176Y-11794576D02*
X15029176Y-11832671D01*
X15105367Y-11794576D02*
X15105367Y-11832671D01*
X15400605Y-12070767D02*
X15391081Y-12061243D01*
X15372033Y-12032671D01*
X15362509Y-12013624D01*
X15352986Y-11985052D01*
X15343462Y-11937433D01*
X15343462Y-11899338D01*
X15352986Y-11851719D01*
X15362509Y-11823148D01*
X15372033Y-11804100D01*
X15391081Y-11775528D01*
X15400605Y-11766005D01*
X15562509Y-11861243D02*
X15562509Y-11994576D01*
X15514890Y-11785052D02*
X15467271Y-11927909D01*
X15591081Y-11927909D01*
X15705367Y-11794576D02*
X15724414Y-11794576D01*
X15743462Y-11804100D01*
X15752986Y-11813624D01*
X15762509Y-11832671D01*
X15772033Y-11870767D01*
X15772033Y-11918386D01*
X15762509Y-11956481D01*
X15752986Y-11975528D01*
X15743462Y-11985052D01*
X15724414Y-11994576D01*
X15705367Y-11994576D01*
X15686319Y-11985052D01*
X15676795Y-11975528D01*
X15667271Y-11956481D01*
X15657748Y-11918386D01*
X15657748Y-11870767D01*
X15667271Y-11832671D01*
X15676795Y-11813624D01*
X15686319Y-11804100D01*
X15705367Y-11794576D01*
X16010128Y-11994576D02*
X16010128Y-11794576D01*
X16095843Y-11994576D02*
X16095843Y-11889814D01*
X16086319Y-11870767D01*
X16067271Y-11861243D01*
X16038700Y-11861243D01*
X16019652Y-11870767D01*
X16010128Y-11880290D01*
X16219652Y-11994576D02*
X16200605Y-11985052D01*
X16191081Y-11975528D01*
X16181557Y-11956481D01*
X16181557Y-11899338D01*
X16191081Y-11880290D01*
X16200605Y-11870767D01*
X16219652Y-11861243D01*
X16248224Y-11861243D01*
X16267271Y-11870767D01*
X16276795Y-11880290D01*
X16286319Y-11899338D01*
X16286319Y-11956481D01*
X16276795Y-11975528D01*
X16267271Y-11985052D01*
X16248224Y-11994576D01*
X16219652Y-11994576D01*
X16400605Y-11994576D02*
X16381557Y-11985052D01*
X16372033Y-11966005D01*
X16372033Y-11794576D01*
X16552986Y-11985052D02*
X16533938Y-11994576D01*
X16495843Y-11994576D01*
X16476795Y-11985052D01*
X16467271Y-11966005D01*
X16467271Y-11889814D01*
X16476795Y-11870767D01*
X16495843Y-11861243D01*
X16533938Y-11861243D01*
X16552986Y-11870767D01*
X16562509Y-11889814D01*
X16562509Y-11908862D01*
X16467271Y-11927909D01*
X16638700Y-11985052D02*
X16657748Y-11994576D01*
X16695843Y-11994576D01*
X16714890Y-11985052D01*
X16724414Y-11966005D01*
X16724414Y-11956481D01*
X16714890Y-11937433D01*
X16695843Y-11927909D01*
X16667271Y-11927909D01*
X16648224Y-11918386D01*
X16638700Y-11899338D01*
X16638700Y-11889814D01*
X16648224Y-11870767D01*
X16667271Y-11861243D01*
X16695843Y-11861243D01*
X16714890Y-11870767D01*
X16791081Y-12070767D02*
X16800605Y-12061243D01*
X16819652Y-12032671D01*
X16829176Y-12013624D01*
X16838700Y-11985052D01*
X16848224Y-11937433D01*
X16848224Y-11899338D01*
X16838700Y-11851719D01*
X16829176Y-11823148D01*
X16819652Y-11804100D01*
X16800605Y-11775528D01*
X16791081Y-11766005D01*
M02*
