<?xml version="1.0" encoding="UTF-8" standalone="no"?><svg xmlns="http://www.w3.org/2000/svg" xmlns:xlink="http://www.w3.org/1999/xlink" contentScriptType="application/ecmascript" contentStyleType="text/css" height="693px" preserveAspectRatio="none" style="width:1095px;height:693px;background:#FFFFFF;" version="1.1" viewBox="0 0 1095 693" width="1095px" zoomAndPan="magnify"><defs><filter height="300%" id="f1dp4q9k5hdjdd" width="300%" x="-1" y="-1"><feGaussianBlur result="blurOut" stdDeviation="2.0"/><feColorMatrix in="blurOut" result="blurOut2" type="matrix" values="0 0 0 0 0 0 0 0 0 0 0 0 0 0 0 0 0 0 .4 0"/><feOffset dx="4.0" dy="4.0" in="blurOut2" result="blurOut3"/><feBlend in="SourceGraphic" in2="blurOut3" mode="normal"/></filter></defs><g><text fill="#000000" font-family="sans-serif" font-size="18" lengthAdjust="spacing" textLength="156" x="467.25" y="28.8838">Reading the "ROM"</text><line style="stroke:#A80036;stroke-width:1.0;stroke-dasharray:5.0,5.0;" x1="46" x2="46" y1="90.8955" y2="633.8188"/><line style="stroke:#A80036;stroke-width:1.0;stroke-dasharray:5.0,5.0;" x1="236" x2="236" y1="90.8955" y2="633.8188"/><line style="stroke:#A80036;stroke-width:1.0;stroke-dasharray:5.0,5.0;" x1="375" x2="375" y1="90.8955" y2="633.8188"/><line style="stroke:#A80036;stroke-width:1.0;stroke-dasharray:5.0,5.0;" x1="548" x2="548" y1="90.8955" y2="633.8188"/><line style="stroke:#A80036;stroke-width:1.0;stroke-dasharray:5.0,5.0;" x1="631" x2="631" y1="90.8955" y2="633.8188"/><line style="stroke:#A80036;stroke-width:1.0;stroke-dasharray:5.0,5.0;" x1="718" x2="718" y1="90.8955" y2="633.8188"/><line style="stroke:#A80036;stroke-width:1.0;stroke-dasharray:5.0,5.0;" x1="895" x2="895" y1="90.8955" y2="633.8188"/><line style="stroke:#A80036;stroke-width:1.0;stroke-dasharray:5.0,5.0;" x1="1045.5" x2="1045.5" y1="90.8955" y2="633.8188"/><rect fill="#FEFECE" filter="url(#f1dp4q9k5hdjdd)" height="30.0986" style="stroke:#A80036;stroke-width:1.5;" width="78" x="5" y="55.7969"/><text fill="#000000" font-family="sans-serif" font-size="14" lengthAdjust="spacing" textLength="64" x="12" y="75.9287">GPIO pins</text><rect fill="#FEFECE" filter="url(#f1dp4q9k5hdjdd)" height="30.0986" style="stroke:#A80036;stroke-width:1.5;" width="78" x="5" y="632.8188"/><text fill="#000000" font-family="sans-serif" font-size="14" lengthAdjust="spacing" textLength="64" x="12" y="652.9507">GPIO pins</text><rect fill="#FEFECE" filter="url(#f1dp4q9k5hdjdd)" height="46.1973" style="stroke:#A80036;stroke-width:1.5;" width="148" x="160" y="39.6982"/><text fill="#000000" font-family="sans-serif" font-size="14" lengthAdjust="spacing" textLength="134" x="167" y="59.8301">address decoder PIO</text><text fill="#000000" font-family="sans-serif" font-size="14" lengthAdjust="spacing" textLength="88" x="190" y="75.9287">state machine</text><rect fill="#FEFECE" filter="url(#f1dp4q9k5hdjdd)" height="46.1973" style="stroke:#A80036;stroke-width:1.5;" width="148" x="160" y="632.8188"/><text fill="#000000" font-family="sans-serif" font-size="14" lengthAdjust="spacing" textLength="134" x="167" y="652.9507">address decoder PIO</text><text fill="#000000" font-family="sans-serif" font-size="14" lengthAdjust="spacing" textLength="88" x="190" y="669.0493">state machine</text><rect fill="#FEFECE" filter="url(#f1dp4q9k5hdjdd)" height="46.1973" style="stroke:#A80036;stroke-width:1.5;" width="102" x="322" y="39.6982"/><text fill="#000000" font-family="sans-serif" font-size="14" lengthAdjust="spacing" textLength="56" x="345" y="59.8301">read PIO</text><text fill="#000000" font-family="sans-serif" font-size="14" lengthAdjust="spacing" textLength="88" x="329" y="75.9287">state machine</text><rect fill="#FEFECE" filter="url(#f1dp4q9k5hdjdd)" height="46.1973" style="stroke:#A80036;stroke-width:1.5;" width="102" x="322" y="632.8188"/><text fill="#000000" font-family="sans-serif" font-size="14" lengthAdjust="spacing" textLength="56" x="345" y="652.9507">read PIO</text><text fill="#000000" font-family="sans-serif" font-size="14" lengthAdjust="spacing" textLength="88" x="329" y="669.0493">state machine</text><path d="M516,48.6982 L580,48.6982 C585,48.6982 585,69.7969 585,69.7969 C585,69.7969 585,90.8955 580,90.8955 L516,90.8955 C511,90.8955 511,69.7969 511,69.7969 C511,69.7969 511,48.6982 516,48.6982 " fill="#FEFECE" filter="url(#f1dp4q9k5hdjdd)" style="stroke:#A80036;stroke-width:2.0;"/><path d="M580,48.6982 C575,48.6982 575,69.7969 575,69.7969 C575,90.8955 580,90.8955 580,90.8955 " fill="none" style="stroke:#A80036;stroke-width:2.0;"/><text fill="#000000" font-family="sans-serif" font-size="14" lengthAdjust="spacing" textLength="51" x="517.5" y="66.8301">read sm</text><text fill="#000000" font-family="sans-serif" font-size="14" lengthAdjust="spacing" textLength="54" x="516" y="82.9287">RX FIFO</text><path d="M516,632.8188 L580,632.8188 C585,632.8188 585,653.9175 585,653.9175 C585,653.9175 585,675.0161 580,675.0161 L516,675.0161 C511,675.0161 511,653.9175 511,653.9175 C511,653.9175 511,632.8188 516,632.8188 " fill="#FEFECE" filter="url(#f1dp4q9k5hdjdd)" style="stroke:#A80036;stroke-width:2.0;"/><path d="M580,632.8188 C575,632.8188 575,653.9175 575,653.9175 C575,675.0161 580,675.0161 580,675.0161 " fill="none" style="stroke:#A80036;stroke-width:2.0;"/><text fill="#000000" font-family="sans-serif" font-size="14" lengthAdjust="spacing" textLength="51" x="517.5" y="650.9507">read sm</text><text fill="#000000" font-family="sans-serif" font-size="14" lengthAdjust="spacing" textLength="54" x="516" y="667.0493">RX FIFO</text><path d="M600,48.6982 L663,48.6982 C668,48.6982 668,69.7969 668,69.7969 C668,69.7969 668,90.8955 663,90.8955 L600,90.8955 C595,90.8955 595,69.7969 595,69.7969 C595,69.7969 595,48.6982 600,48.6982 " fill="#FEFECE" filter="url(#f1dp4q9k5hdjdd)" style="stroke:#A80036;stroke-width:2.0;"/><path d="M663,48.6982 C658,48.6982 658,69.7969 658,69.7969 C658,90.8955 663,90.8955 663,90.8955 " fill="none" style="stroke:#A80036;stroke-width:2.0;"/><text fill="#000000" font-family="sans-serif" font-size="14" lengthAdjust="spacing" textLength="51" x="601" y="66.8301">read sm</text><text fill="#000000" font-family="sans-serif" font-size="14" lengthAdjust="spacing" textLength="53" x="600" y="82.9287">TX FIFO</text><path d="M600,632.8188 L663,632.8188 C668,632.8188 668,653.9175 668,653.9175 C668,653.9175 668,675.0161 663,675.0161 L600,675.0161 C595,675.0161 595,653.9175 595,653.9175 C595,653.9175 595,632.8188 600,632.8188 " fill="#FEFECE" filter="url(#f1dp4q9k5hdjdd)" style="stroke:#A80036;stroke-width:2.0;"/><path d="M663,632.8188 C658,632.8188 658,653.9175 658,653.9175 C658,675.0161 663,675.0161 663,675.0161 " fill="none" style="stroke:#A80036;stroke-width:2.0;"/><text fill="#000000" font-family="sans-serif" font-size="14" lengthAdjust="spacing" textLength="51" x="601" y="650.9507">read sm</text><text fill="#000000" font-family="sans-serif" font-size="14" lengthAdjust="spacing" textLength="53" x="600" y="667.0493">TX FIFO</text><rect fill="#FEFECE" filter="url(#f1dp4q9k5hdjdd)" height="46.1973" style="stroke:#A80036;stroke-width:1.5;" width="76" x="678" y="39.6982"/><text fill="#000000" font-family="sans-serif" font-size="14" lengthAdjust="spacing" textLength="30" x="701" y="59.8301">DMA</text><text fill="#000000" font-family="sans-serif" font-size="14" lengthAdjust="spacing" textLength="62" x="685" y="75.9287">channel 1</text><rect fill="#FEFECE" filter="url(#f1dp4q9k5hdjdd)" height="46.1973" style="stroke:#A80036;stroke-width:1.5;" width="76" x="678" y="632.8188"/><text fill="#000000" font-family="sans-serif" font-size="14" lengthAdjust="spacing" textLength="30" x="701" y="652.9507">DMA</text><text fill="#000000" font-family="sans-serif" font-size="14" lengthAdjust="spacing" textLength="62" x="685" y="669.0493">channel 1</text><rect fill="#FEFECE" filter="url(#f1dp4q9k5hdjdd)" height="46.1973" style="stroke:#A80036;stroke-width:1.5;" width="76" x="855" y="39.6982"/><text fill="#000000" font-family="sans-serif" font-size="14" lengthAdjust="spacing" textLength="30" x="878" y="59.8301">DMA</text><text fill="#000000" font-family="sans-serif" font-size="14" lengthAdjust="spacing" textLength="62" x="862" y="75.9287">channel 2</text><rect fill="#FEFECE" filter="url(#f1dp4q9k5hdjdd)" height="46.1973" style="stroke:#A80036;stroke-width:1.5;" width="76" x="855" y="632.8188"/><text fill="#000000" font-family="sans-serif" font-size="14" lengthAdjust="spacing" textLength="30" x="878" y="652.9507">DMA</text><text fill="#000000" font-family="sans-serif" font-size="14" lengthAdjust="spacing" textLength="62" x="862" y="669.0493">channel 2</text><rect fill="#FEFECE" filter="url(#f1dp4q9k5hdjdd)" height="30.0986" style="stroke:#A80036;stroke-width:1.5;" width="75" x="1006.5" y="55.7969"/><text fill="#000000" font-family="sans-serif" font-size="14" lengthAdjust="spacing" textLength="61" x="1013.5" y="75.9287">Pico RAM</text><rect fill="#FEFECE" filter="url(#f1dp4q9k5hdjdd)" height="30.0986" style="stroke:#A80036;stroke-width:1.5;" width="75" x="1006.5" y="632.8188"/><text fill="#000000" font-family="sans-serif" font-size="14" lengthAdjust="spacing" textLength="61" x="1013.5" y="652.9507">Pico RAM</text><polygon fill="#A80036" points="224,132.793,234,136.793,224,140.793,228,136.793" style="stroke:#A80036;stroke-width:1.0;"/><line style="stroke:#A80036;stroke-width:1.0;" x1="46" x2="230" y1="136.793" y2="136.793"/><text fill="#000000" font-family="sans-serif" font-size="13" font-weight="bold" lengthAdjust="spacing" textLength="7" x="53" y="124.5637">1</text><text fill="#000000" font-family="sans-serif" font-size="13" lengthAdjust="spacing" textLength="153" x="64" y="117.0894">Wait for ROM read to start</text><text fill="#000000" font-family="sans-serif" font-size="13" lengthAdjust="spacing" textLength="126" x="64" y="132.0381">(ROML or ROMH low)</text><polygon fill="#A80036" points="363,161.7417,373,165.7417,363,169.7417,367,165.7417" style="stroke:#A80036;stroke-width:1.0;"/><line style="stroke:#A80036;stroke-width:1.0;" x1="236" x2="369" y1="165.7417" y2="165.7417"/><text fill="#000000" font-family="sans-serif" font-size="13" font-weight="bold" lengthAdjust="spacing" textLength="7" x="243" y="160.9868">2</text><text fill="#000000" font-family="sans-serif" font-size="13" lengthAdjust="spacing" textLength="83" x="254" y="160.9868">Trigger by IRQ</text><polygon fill="#A80036" points="363,190.6904,373,194.6904,363,198.6904,367,194.6904" style="stroke:#A80036;stroke-width:1.0;"/><line style="stroke:#A80036;stroke-width:1.0;" x1="46" x2="369" y1="194.6904" y2="194.6904"/><text fill="#000000" font-family="sans-serif" font-size="13" font-weight="bold" lengthAdjust="spacing" textLength="7" x="53" y="189.9355">3</text><text fill="#000000" font-family="sans-serif" font-size="13" lengthAdjust="spacing" textLength="30" x="64" y="189.9355">Read</text><text fill="#000000" font-family="sans-serif" font-size="13" font-weight="bold" lengthAdjust="spacing" textLength="87" x="98" y="189.9355">14-bit address</text><text fill="#000000" font-family="sans-serif" font-size="13" lengthAdjust="spacing" textLength="100" x="189" y="189.9355">from address bus</text><line style="stroke:#A80036;stroke-width:1.0;" x1="375" x2="417" y1="238.5879" y2="238.5879"/><line style="stroke:#A80036;stroke-width:1.0;" x1="417" x2="417" y1="238.5879" y2="251.5879"/><line style="stroke:#A80036;stroke-width:1.0;" x1="376" x2="417" y1="251.5879" y2="251.5879"/><polygon fill="#A80036" points="386,247.5879,376,251.5879,386,255.5879,382,251.5879" style="stroke:#A80036;stroke-width:1.0;"/><text fill="#000000" font-family="sans-serif" font-size="13" font-weight="bold" lengthAdjust="spacing" textLength="7" x="382" y="226.3586">4</text><text fill="#000000" font-family="sans-serif" font-size="13" lengthAdjust="spacing" textLength="51" x="393" y="218.8843">Combine</text><text fill="#000000" font-family="sans-serif" font-size="13" font-weight="bold" lengthAdjust="spacing" textLength="87" x="448" y="218.8843">14-bit address</text><text fill="#000000" font-family="sans-serif" font-size="13" lengthAdjust="spacing" textLength="23" x="393" y="233.833">with</text><text fill="#000000" font-family="sans-serif" font-size="13" font-weight="bold" lengthAdjust="spacing" textLength="121" x="420" y="233.833">18-bit base address</text><polygon fill="#A80036" points="536,291.4854,546,295.4854,536,299.4854,540,295.4854" style="stroke:#A80036;stroke-width:1.0;"/><line style="stroke:#A80036;stroke-width:1.0;" x1="375" x2="542" y1="295.4854" y2="295.4854"/><text fill="#000000" font-family="sans-serif" font-size="13" font-weight="bold" lengthAdjust="spacing" textLength="7" x="382" y="283.2561">5</text><text fill="#000000" font-family="sans-serif" font-size="13" lengthAdjust="spacing" textLength="20" x="393" y="275.7817">Put</text><text fill="#000000" font-family="sans-serif" font-size="13" font-weight="bold" lengthAdjust="spacing" textLength="87" x="417" y="275.7817">32-bit address</text><text fill="#000000" font-family="sans-serif" font-size="13" lengthAdjust="spacing" textLength="67" x="393" y="290.7305">on RX FIFO</text><polygon fill="#A80036" points="706,320.4341,716,324.4341,706,328.4341,710,324.4341" style="stroke:#A80036;stroke-width:1.0;"/><line style="stroke:#A80036;stroke-width:1.0;" x1="548" x2="712" y1="324.4341" y2="324.4341"/><text fill="#000000" font-family="sans-serif" font-size="13" font-weight="bold" lengthAdjust="spacing" textLength="7" x="555" y="319.6792">6</text><text fill="#000000" font-family="sans-serif" font-size="13" lengthAdjust="spacing" textLength="90" x="566" y="319.6792">Trigger by FIFO</text><polygon fill="#A80036" points="883,379.2803,893,383.2803,883,387.2803,887,383.2803" style="stroke:#A80036;stroke-width:1.0;"/><line style="stroke:#A80036;stroke-width:1.0;" x1="718" x2="889" y1="383.2803" y2="383.2803"/><text fill="#000000" font-family="sans-serif" font-size="13" font-weight="bold" lengthAdjust="spacing" textLength="7" x="725" y="363.5767">7</text><text fill="#000000" font-family="sans-serif" font-size="13" lengthAdjust="spacing" textLength="31" x="736" y="348.6279">Write</text><text fill="#000000" font-family="sans-serif" font-size="13" font-weight="bold" lengthAdjust="spacing" textLength="87" x="771" y="348.6279">32-bit address</text><text fill="#000000" font-family="sans-serif" font-size="13" lengthAdjust="spacing" textLength="11" x="862" y="348.6279">to</text><text fill="#000000" font-family="sans-serif" font-size="13" lengthAdjust="spacing" textLength="142" x="736" y="363.5767">DMA 2 configuration and</text><text fill="#000000" font-family="sans-serif" font-size="13" lengthAdjust="spacing" textLength="80" x="736" y="378.5254">trigger DMA 2</text><polygon fill="#A80036" points="1034,423.1777,1044,427.1777,1034,431.1777,1038,427.1777" style="stroke:#A80036;stroke-width:1.0;"/><line style="stroke:#A80036;stroke-width:1.0;" x1="895" x2="1040" y1="427.1777" y2="427.1777"/><text fill="#000000" font-family="sans-serif" font-size="13" font-weight="bold" lengthAdjust="spacing" textLength="7" x="902" y="414.9485">8</text><text fill="#000000" font-family="sans-serif" font-size="13" lengthAdjust="spacing" textLength="30" x="913" y="407.4741">Read</text><text fill="#000000" font-family="sans-serif" font-size="13" font-weight="bold" lengthAdjust="spacing" textLength="59" x="947" y="407.4741">8-bit data</text><text fill="#000000" font-family="sans-serif" font-size="13" lengthAdjust="spacing" textLength="25" x="913" y="422.4229">from</text><text fill="#000000" font-family="sans-serif" font-size="13" font-weight="bold" lengthAdjust="spacing" textLength="87" x="942" y="422.4229">32-bit address</text><polygon fill="#A80036" points="906,437.1777,896,441.1777,906,445.1777,902,441.1777" style="stroke:#A80036;stroke-width:1.0;"/><line style="stroke:#A80036;stroke-width:1.0;" x1="900" x2="1045" y1="441.1777" y2="441.1777"/><polygon fill="#A80036" points="642.5,466.1265,632.5,470.1265,642.5,474.1265,638.5,470.1265" style="stroke:#A80036;stroke-width:1.0;"/><line style="stroke:#A80036;stroke-width:1.0;" x1="636.5" x2="894" y1="470.1265" y2="470.1265"/><text fill="#000000" font-family="sans-serif" font-size="13" font-weight="bold" lengthAdjust="spacing" textLength="7" x="648.5" y="465.3716">9</text><text fill="#000000" font-family="sans-serif" font-size="13" lengthAdjust="spacing" textLength="20" x="659.5" y="465.3716">Put</text><text fill="#000000" font-family="sans-serif" font-size="13" font-weight="bold" lengthAdjust="spacing" textLength="59" x="683.5" y="465.3716">8-bit data</text><text fill="#000000" font-family="sans-serif" font-size="13" lengthAdjust="spacing" textLength="65" x="746.5" y="465.3716">on TX FIFO</text><polygon fill="#A80036" points="386,495.0752,376,499.0752,386,503.0752,382,499.0752" style="stroke:#A80036;stroke-width:1.0;"/><line style="stroke:#A80036;stroke-width:1.0;" x1="380" x2="630.5" y1="499.0752" y2="499.0752"/><text fill="#000000" font-family="sans-serif" font-size="13" font-weight="bold" lengthAdjust="spacing" textLength="14" x="392" y="494.3203">10</text><text fill="#000000" font-family="sans-serif" font-size="13" lengthAdjust="spacing" textLength="45" x="410" y="494.3203">Wait for</text><text fill="#000000" font-family="sans-serif" font-size="13" font-weight="bold" lengthAdjust="spacing" textLength="59" x="459" y="494.3203">8-bit data</text><text fill="#000000" font-family="sans-serif" font-size="13" lengthAdjust="spacing" textLength="65" x="522" y="494.3203">on TX FIFO</text><polygon fill="#A80036" points="57,538.9727,47,542.9727,57,546.9727,53,542.9727" style="stroke:#A80036;stroke-width:1.0;"/><line style="stroke:#A80036;stroke-width:1.0;" x1="51" x2="374" y1="542.9727" y2="542.9727"/><text fill="#000000" font-family="sans-serif" font-size="13" font-weight="bold" lengthAdjust="spacing" textLength="14" x="63" y="530.7434">11</text><text fill="#000000" font-family="sans-serif" font-size="13" lengthAdjust="spacing" textLength="31" x="81" y="523.269">Write</text><text fill="#000000" font-family="sans-serif" font-size="13" font-weight="bold" lengthAdjust="spacing" textLength="59" x="116" y="523.269">8-bit data</text><text fill="#000000" font-family="sans-serif" font-size="13" lengthAdjust="spacing" textLength="65" x="179" y="523.269">to data bus</text><text fill="#000000" font-family="sans-serif" font-size="13" lengthAdjust="spacing" textLength="158" x="81" y="538.2178">and set "output enable" low</text><polygon fill="#A80036" points="224,582.8701,234,586.8701,224,590.8701,228,586.8701" style="stroke:#A80036;stroke-width:1.0;"/><line style="stroke:#A80036;stroke-width:1.0;" x1="46" x2="230" y1="586.8701" y2="586.8701"/><text fill="#000000" font-family="sans-serif" font-size="13" font-weight="bold" lengthAdjust="spacing" textLength="14" x="53" y="574.6409">12</text><text fill="#000000" font-family="sans-serif" font-size="13" lengthAdjust="spacing" textLength="148" x="71" y="567.1665">Wait for ROM read to end</text><text fill="#000000" font-family="sans-serif" font-size="13" lengthAdjust="spacing" textLength="131" x="71" y="582.1152">(ROML or ROMH high)</text><polygon fill="#A80036" points="57,611.8188,47,615.8188,57,619.8188,53,615.8188" style="stroke:#A80036;stroke-width:1.0;"/><line style="stroke:#A80036;stroke-width:1.0;" x1="51" x2="235" y1="615.8188" y2="615.8188"/><text fill="#000000" font-family="sans-serif" font-size="13" font-weight="bold" lengthAdjust="spacing" textLength="14" x="63" y="611.064">13</text><text fill="#000000" font-family="sans-serif" font-size="13" lengthAdjust="spacing" textLength="140" x="81" y="611.064">Set "output enable" high</text><!--MD5=[b161a27dcf6a4502311863e057402569]
@startuml
autonumber

participant "GPIO pins" as G
participant "address decoder PIO\nstate machine" as AD
participant "read PIO\nstate machine" as RSM
queue "read sm\nRX FIFO" as RX
queue "read sm\nTX FIFO" as TX
participant "DMA\nchannel 1" as D1
participant "DMA\nchannel 2" as D2
participant "Pico RAM" as RAM

title Reading the "ROM"

G -> AD: Wait for ROM read to start\n(ROML or ROMH low)

  AD -> RSM: Trigger by IRQ

G -> RSM: Read <b>14-bit address</b> from address bus

  RSM -> RSM: Combine <b>14-bit address</b>\nwith <b>18-bit base address</b>

  RSM -> RX: Put <b>32-bit address</b>\non RX FIFO

    RX -> D1: Trigger by FIFO

      D1 -> D2: Write <b>32-bit address</b> to\nDMA 2 configuration and\ntrigger DMA 2

        D2 -> RAM: Read <b>8-bit data</b>\nfrom <b>32-bit address</b>
        autonumber stop
        RAM -> D2
        autonumber resume

      D2 -> TX: Put <b>8-bit data</b> on TX FIFO

  TX -> RSM: Wait for <b>8-bit data</b> on TX FIFO

RSM -> G: Write <b>8-bit data</b> to data bus\nand set "output enable" low

G -> AD: Wait for ROM read to end\n(ROML or ROMH high)

AD -> G: Set "output enable" high

@enduml

PlantUML version 1.2022.0(Tue Jan 11 11:16:42 EST 2022)
(GPL source distribution)
Java Runtime: OpenJDK Runtime Environment
JVM: OpenJDK 64-Bit Server VM
Default Encoding: UTF-8
Language: en
Country: US
--></g></svg>